<svg xmlns="http://www.w3.org/2000/svg" width="18.51" height="18.38" viewBox="379.491 51.278 18.51 18.38">
    <g data-name="favourite">
        <g data-name="Path 1139">
            <g data-name="Path 1172">
                <path
                    d="M394.21 69.045a.581.581 0 0 1-.27-.066l-5.26-2.753-4.965 2.747a.582.582 0 0 1-.855-.617l1.032-5.552-4.213-3.887a.583.583 0 0 1 .323-1.007l5.846-.722 2.505-5.261a.6.6 0 0 1 .532-.332.582.582 0 0 1 .525.342l2.307 5.103 5.787.872a.582.582 0 0 1 .308 1.005l-4.215 3.88 1.182 5.544a.583.583 0 0 1-.57.704Zm-5.325-8.536s2.001 4.427 0 0Z"
                    fill="#f6c84d" fill-rule="evenodd" />
                <path
                    d="M394.21 69.045a.581.581 0 0 1-.27-.066l-5.26-2.753-4.965 2.747a.582.582 0 0 1-.855-.617l1.032-5.552-4.213-3.887a.583.583 0 0 1 .323-1.007l5.846-.722 2.505-5.261a.6.6 0 0 1 .532-.332.582.582 0 0 1 .525.342l2.307 5.103 5.787.872a.582.582 0 0 1 .308 1.005l-4.215 3.88 1.182 5.544a.583.583 0 0 1-.57.704Zm-5.325-8.536s2.001 4.427 0 0Z"
                    stroke-linejoin="round" stroke-linecap="round" stroke="#f6c84d" fill="transparent" />
            </g>
        </g>
    </g>
</svg>
